<?xml version="1.0" standalone="no"?>
<!DOCTYPE svg PUBLIC "-//W3C//DTD SVG 20010904//EN"
 "http://www.w3.org/TR/2001/REC-SVG-20010904/DTD/svg10.dtd">
<svg version="1.0" xmlns="http://www.w3.org/2000/svg"
 width="1024.000000pt" height="1024.000000pt" viewBox="0 0 1024.000000 1024.000000"
 preserveAspectRatio="xMidYMid meet">
<metadata>
Created by potrace 1.11, written by Peter Selinger 2001-2013
</metadata>
<g transform="translate(0.000000,1024.000000) scale(0.100000,-0.100000)"
fill="#000000" stroke="none">
<path d="M5332 10139 c-182 -24 -361 -119 -483 -259 l-51 -57 -247 64 c-648
168 -763 192 -966 200 -233 9 -397 -22 -580 -112 -150 -73 -262 -164 -337
-276 -169 -249 -468 -928 -861 -1954 -580 -1517 -1402 -3948 -1586 -4691 -16
-65 -42 -164 -57 -219 -25 -89 -28 -116 -29 -250 0 -126 4 -163 23 -228 47
-164 123 -294 252 -430 60 -64 81 -94 95 -137 75 -231 276 -464 485 -564 40
-19 261 -71 795 -186 1946 -418 3300 -700 4085 -851 936 -180 1066 -191 1280
-109 218 85 426 297 550 564 56 119 76 179 105 322 104 503 911 3315 1490
5189 121 391 276 863 344 1045 68 180 84 366 42 473 -34 86 -89 161 -196 268
-93 93 -96 97 -105 157 l-10 61 72 113 73 113 -1 130 c-3 323 -95 565 -289
761 -79 80 -132 118 -232 168 -214 108 -487 124 -670 41 -46 -21 -63 -38 -151
-157 -54 -73 -134 -184 -178 -245 -43 -62 -83 -113 -89 -113 -5 0 -146 39
-312 87 l-303 88 0 105 c0 310 -98 516 -286 605 -92 44 -176 59 -334 59 -162
1 -231 -14 -361 -79 -71 -36 -213 -144 -229 -176 -6 -10 -14 -19 -18 -19 -4 0
-15 36 -24 79 -46 221 -184 363 -394 405 -92 19 -235 26 -312 15z m188 -39
c92 -15 196 -67 257 -129 87 -88 134 -208 155 -396 11 -95 10 -102 -11 -143
-12 -23 -25 -40 -30 -38 -4 3 -11 56 -14 118 -21 363 -170 529 -477 532 -268
2 -506 -225 -617 -589 -25 -84 -27 -103 -27 -270 -1 -203 10 -257 71 -383 79
-161 220 -253 417 -271 77 -7 104 -27 75 -56 -14 -14 -27 -15 -101 -5 -160 19
-255 66 -355 174 -65 70 -114 162 -146 275 -18 65 -21 104 -21 261 0 162 2
196 22 268 91 336 307 587 557 648 63 15 161 17 245 4z m1270 -236 c82 -18
171 -69 224 -127 52 -57 112 -185 131 -282 9 -44 17 -127 18 -185 l2 -105 -25
0 c-25 0 -25 2 -32 100 -23 310 -106 458 -296 528 -46 17 -81 21 -177 21 -108
1 -126 -2 -182 -26 -306 -130 -511 -529 -473 -924 32 -344 195 -531 489 -560
73 -7 96 -20 85 -48 -15 -39 -221 -5 -335 55 -122 65 -223 204 -268 369 -99
358 11 777 268 1023 136 130 242 176 404 177 54 0 129 -7 167 -16z m-1253 -54
c94 -12 147 -40 172 -88 17 -34 45 -141 38 -148 -4 -4 -571 148 -580 156 -12
10 100 63 163 76 68 15 115 16 207 4z m1275 -234 c75 -17 106 -39 128 -89 23
-52 42 -160 38 -213 l-3 -40 -315 87 c-173 49 -326 91 -339 94 -24 6 -24 6 12
43 50 51 130 98 197 116 70 19 208 20 282 2z m-2856 -47 c148 -14 361 -51 522
-89 l134 -32 -6 -32 c-17 -93 -18 -285 -2 -393 46 -314 182 -523 405 -625 131
-60 310 -77 371 -35 103 69 98 227 -10 284 -25 13 -61 23 -84 23 -63 0 -153
27 -200 59 -116 80 -178 249 -180 488 -1 72 2 134 5 137 6 7 348 -97 860 -260
l46 -15 6 -152 c7 -185 36 -310 101 -442 116 -235 318 -366 568 -369 73 -1 91
2 115 20 48 36 73 82 73 136 0 108 -56 161 -179 173 -41 3 -99 16 -129 27
-132 49 -215 202 -238 435 l-7 72 74 -23 c229 -74 1355 -449 1358 -452 2 -2
-142 -221 -319 -486 -178 -266 -324 -484 -324 -485 -1 -1 -771 203 -1711 452
-941 250 -1715 455 -1721 455 -11 0 -51 -126 -43 -134 2 -2 763 -206 1692
-453 928 -246 1687 -450 1687 -453 -1 -22 -458 -640 -473 -640 -7 0 -730 196
-1607 435 -877 238 -1596 432 -1598 431 -1 -2 -11 -33 -21 -69 -18 -61 -18
-67 -3 -71 9 -3 715 -195 1567 -426 853 -232 1553 -425 1558 -429 15 -15 -294
-370 -530 -609 -153 -155 -164 -164 -193 -159 -16 4 -649 171 -1406 372 -966
257 -1379 363 -1384 355 -9 -15 -33 -120 -28 -125 2 -2 612 -166 1356 -363
745 -198 1356 -363 1359 -366 9 -8 -79 -207 -204 -458 l-112 -227 -33 9
c-1023 280 -2638 719 -2652 722 -15 2 -22 -9 -37 -62 -9 -36 -16 -66 -14 -68
2 -3 597 -166 1322 -363 725 -197 1324 -361 1331 -364 14 -5 -20 -76 -176
-355 -93 -167 -296 -519 -314 -543 -12 -16 -91 3 -1237 308 -673 179 -1227
325 -1231 325 -8 0 -46 -128 -39 -133 2 -2 544 -147 1204 -322 660 -175 1203
-321 1207 -324 4 -4 -10 -33 -30 -66 -21 -33 -48 -77 -61 -98 l-23 -38 28 7
c16 3 108 31 204 61 162 51 178 55 220 45 25 -6 171 -44 325 -86 154 -41 557
-148 895 -237 338 -89 622 -164 631 -166 13 -4 20 10 33 62 9 37 16 69 14 70
-2 2 -232 65 -513 140 -921 247 -1167 313 -1170 317 -2 2 60 30 138 62 330
137 764 347 1074 520 l152 85 292 -80 c161 -44 295 -76 299 -72 8 9 42 135 38
138 -2 1 -101 28 -220 60 -120 32 -218 61 -218 64 0 3 19 17 43 30 154 87 422
283 609 447 56 49 107 88 115 86 7 -2 13 5 13 14 0 9 60 78 133 153 271 279
521 591 800 1001 55 80 96 134 91 120 -71 -234 -373 -1297 -530 -1865 -244
-883 -566 -2003 -681 -2365 -82 -260 -241 -687 -299 -807 -56 -114 -118 -182
-198 -219 -105 -48 -132 -46 -611 49 -236 47 -592 118 -790 157 -198 39 -529
104 -735 145 -572 113 -1719 339 -2460 485 -366 72 -678 133 -695 137 -102 20
-324 90 -400 127 -116 57 -175 109 -216 192 -51 103 -51 171 1 369 124 479
349 1213 630 2055 645 1935 1271 3496 1662 4148 82 136 192 286 243 331 118
103 363 143 691 110z m4735 -395 l111 -55 -20 -22 c-10 -12 -106 -125 -212
-252 -106 -126 -195 -231 -199 -233 -13 -5 -222 74 -221 84 1 14 412 534 422
534 5 0 58 -25 119 -56z m-526 -659 c79 -21 168 -63 247 -116 67 -46 198 -172
198 -191 0 -7 -11 -28 -24 -47 -13 -20 -44 -69 -70 -108 -71 -113 -134 -210
-191 -298 -60 -93 -141 -218 -209 -325 -26 -41 -89 -138 -140 -216 -50 -78
-113 -176 -141 -219 -58 -92 -120 -188 -241 -375 -94 -146 -148 -230 -221
-342 -25 -40 -69 -109 -98 -153 -51 -79 -124 -192 -214 -332 -25 -40 -86 -134
-135 -210 -194 -300 -267 -415 -345 -537 -31 -48 -70 -105 -88 -125 l-32 -36
-11 29 c-85 224 -206 424 -329 546 -98 97 -169 134 -268 138 l-71 4 102 122
c416 492 1327 1735 1874 2555 l176 264 85 -6 c48 -3 113 -13 146 -22z m-2323
-2986 c113 -23 260 -115 339 -212 l31 -37 -33 -63 c-50 -96 -106 -174 -178
-246 -85 -86 -164 -137 -275 -179 l-89 -33 -46 44 c-65 63 -103 80 -194 85
-66 4 -81 2 -99 -14 -32 -29 -12 3 265 414 86 128 157 237 157 242 0 13 56 13
122 -1z m-47 -1009 c-3 -5 -12 -10 -18 -10 -7 0 -6 4 3 10 19 12 23 12 15 0z"/>
<path d="M1705 3753 c-9 -32 -18 -63 -20 -69 -2 -7 830 -239 2282 -634 1850
-504 2287 -620 2294 -609 10 17 34 118 28 122 -2 2 -1025 282 -2274 622 -1248
340 -2275 620 -2282 622 -7 3 -18 -17 -28 -54z"/>
</g>
</svg>
